<mxfile host="app.diagrams.net" modified="2020-12-28T02:18:50.705Z" agent="5.0 (Windows NT 10.0; Win64; x64) AppleWebKit/537.36 (KHTML, like Gecko) Chrome/87.0.4280.88 Safari/537.36" etag="IsSLsYNFvesQSOUh78Oo" version="14.1.2" type="github">
  <diagram id="RLAfhrEI4ryJ485hb1yK" name="Page-1">
    <mxGraphModel dx="1038" dy="492" grid="1" gridSize="10" guides="1" tooltips="1" connect="1" arrows="1" fold="1" page="1" pageScale="1" pageWidth="827" pageHeight="1169" math="0" shadow="0">
      <root>
        <mxCell id="0" />
        <mxCell id="1" parent="0" />
        <mxCell id="QVYmY9gMAS4O-Yb366Bo-3" value="" style="shape=actor;whiteSpace=wrap;html=1;" vertex="1" parent="1">
          <mxGeometry x="200" y="300" width="40" height="60" as="geometry" />
        </mxCell>
        <mxCell id="QVYmY9gMAS4O-Yb366Bo-5" value="" style="shape=actor;whiteSpace=wrap;html=1;" vertex="1" parent="1">
          <mxGeometry x="310" y="300" width="40" height="60" as="geometry" />
        </mxCell>
        <mxCell id="QVYmY9gMAS4O-Yb366Bo-6" value="" style="shape=actor;whiteSpace=wrap;html=1;" vertex="1" parent="1">
          <mxGeometry x="420" y="300" width="40" height="60" as="geometry" />
        </mxCell>
      </root>
    </mxGraphModel>
  </diagram>
</mxfile>
